<svg xmlns="http://www.w3.org/2000/svg" xmlns:xlink="http://www.w3.org/1999/xlink" id="Group_209" data-name="Group 209" width="253.077" height="80.16" viewBox="0 0 253.077 80.16"><defs><linearGradient id="linear-gradient" y1="0.5" x2="1" y2="0.5" gradientUnits="objectBoundingBox"><stop offset="0" stop-color="#51bfee"></stop><stop offset="1" stop-color="#2b4290"></stop></linearGradient><clipPath id="clip-path"><path id="Path_74" data-name="Path 74" d="M233.911,276.066h14.733V217.649H233.911Zm2.786-55.632h9.162v52.846H236.7Zm154.712,43.184-1.324.4a54.558,54.558,0,0,1-6.782,1.547c-5.482.9-11.314.805-15.063-.538a10.929,10.929,0,0,1-4.891-3.359,14.763,14.763,0,0,1-2.764-5.982,46.283,46.283,0,0,1-.081-17.808,14.569,14.569,0,0,1,2.547-5.795,10.274,10.274,0,0,1,4.521-3.309,20.146,20.146,0,0,1,7.244-1.142,32.561,32.561,0,0,1,6.959.721,64.181,64.181,0,0,1,6.349,1.722l1.284.425,3.771-10.369-1.327-.467q-1.6-.561-3.656-1.082-2.041-.514-4.391-.913c-1.551-.262-3.216-.476-4.944-.634s-3.5-.237-5.285-.237a39.573,39.573,0,0,0-13.074,1.918,21.659,21.659,0,0,0-9.072,5.895,23.9,23.9,0,0,0-5.125,9.769,50.777,50.777,0,0,0-1.57,13.33,45.587,45.587,0,0,0,1.6,12.752,21.493,21.493,0,0,0,5.359,9.3,22.706,22.706,0,0,0,9.6,5.493,48.825,48.825,0,0,0,13.959,1.741,64.641,64.641,0,0,0,9.475-.692,63.093,63.093,0,0,0,8.561-1.84l1.352-.4Zm-7.1,9.928a61.878,61.878,0,0,1-9.067.663,46.064,46.064,0,0,1-13.148-1.621,19.92,19.92,0,0,1-8.436-4.8A18.717,18.717,0,0,1,349,259.675a42.911,42.911,0,0,1-1.485-11.966,48,48,0,0,1,1.472-12.591,21.11,21.11,0,0,1,4.51-8.647,18.905,18.905,0,0,1,7.927-5.13,36.84,36.84,0,0,1,12.146-1.759c1.7,0,3.392.076,5.033.226,1.657.151,3.248.355,4.733.607s2.878.54,4.173.866q1.109.279,2.073.571l-1.877,5.166c-1.7-.518-3.488-.984-5.338-1.389a35.314,35.314,0,0,0-7.557-.787,22.861,22.861,0,0,0-8.259,1.335,13.161,13.161,0,0,0-5.71,4.2,17.332,17.332,0,0,0-3.063,6.892,48.993,48.993,0,0,0,.092,19.059,17.472,17.472,0,0,0,3.313,7.1,13.68,13.68,0,0,0,6.113,4.22,26.188,26.188,0,0,0,8.757,1.3,47.291,47.291,0,0,0,7.7-.636c2.04-.338,3.985-.757,5.8-1.247l1.575,5.1A62.825,62.825,0,0,1,384.311,273.546Zm-96.444-45.182h18.156v47.7h14.731v-47.7h17.985V217.649H287.867Zm2.786-7.93h45.3v5.144H317.968v47.7h-9.16v-47.7H290.653Zm-27.324,55.632h14.733V217.649H263.329Zm2.786-55.632h9.162v52.846h-9.162Z" transform="translate(-233.911 -216.797)" fill="none"></path></clipPath><linearGradient id="linear-gradient-2" x1="0.079" y1="0.664" x2="2.541" y2="0.664" gradientUnits="objectBoundingBox"><stop offset="0" stop-color="#51bfee"></stop><stop offset="1" stop-color="#fff" stop-opacity="0"></stop></linearGradient><linearGradient id="linear-gradient-3" x1="0.109" y1="3.988" x2="0.886" y2="-3.121" gradientUnits="objectBoundingBox"><stop offset="0" stop-color="#51bfee"></stop><stop offset="0.327" stop-color="#446570"></stop><stop offset="1" stop-color="#2e2e2d"></stop></linearGradient></defs><g id="Group_104" data-name="Group 104" transform="translate(0 0)"><path id="Path_73" data-name="Path 73" d="M155.313,267.145a.235.235,0,0,0-.027-.057v-5.434a.223.223,0,0,0,.033-.093.233.233,0,0,0-.033-.122v-5.517a.223.223,0,0,0,.025-.05.239.239,0,0,0-.025-.183v-.27H154.8v.019l-13.472-5.371a1.3,1.3,0,0,0-.277-1.475l1.65-3.3a1.373,1.373,0,0,0,.205.02,1.205,1.205,0,0,0,0-2.409,1.12,1.12,0,0,0-1.152,1.065h-4.217a1.166,1.166,0,0,0-1.961-.748l-3.03-2.718a.25.25,0,0,0-.076-.046l-1.175-.445a.887.887,0,0,0-.686-1.377V224.619a1.208,1.208,0,0,0-.207-2.389,1.089,1.089,0,0,0-1.021.607l-2.887-.443a1.108,1.108,0,0,0-1.135-.937,1.089,1.089,0,0,0-1.021.606l-3.616-.555a1.165,1.165,0,0,0-1.146-1.428,1.221,1.221,0,0,0-.829,2.075l-7.823,13.669a.882.882,0,0,0-1.161,1.049l-1.944.916a.888.888,0,1,0-1.6.738l-2.792,1.282a1.108,1.108,0,0,0-1.135-.939,1.2,1.2,0,0,0-1.04,1.762l-2.165.706-3.81-.885a1.163,1.163,0,1,0-2.317-.124l-2.219.277a1.1,1.1,0,0,0-1.09-.76,1.221,1.221,0,0,0-.847,2.057l-1.135,1.639c-.012,0-.023,0-.035,0a.891.891,0,1,0,0,1.781l.019,0,3.247,3.981a1.232,1.232,0,0,0-.357.826l-4.681.171a.889.889,0,1,0-1.094,1.1l-.579,4.084a.88.88,0,0,0-.321-.062.891.891,0,1,0,.536,1.6l8.275,6.264L83.5,279.072a.881.881,0,0,0-.51-.163.891.891,0,1,0,0,1.782c.026,0,.05-.006.075-.007l.381,1.579a.887.887,0,0,0,.809,1.579l2.2,2.557a.888.888,0,1,0,1.633.585l4.668-2.227a.888.888,0,0,0,1.6-.528.871.871,0,0,0-.015-.145l7.587-3.076a.879.879,0,0,0,1.274-.137l2.21,1.281a.886.886,0,0,0,1.431.955l3.414.52a.885.885,0,0,0,1.724.18l.835.068,9.794,9.109a1.185,1.185,0,0,0,1.1,1.61,1.323,1.323,0,0,0,.236-.023l.7,1.031a1.22,1.22,0,0,0,.883,2.017,1.193,1.193,0,0,0,1.072-1.689l8.39-5.438a1.141,1.141,0,0,0,.724.236,1.2,1.2,0,0,0,.021-2.407l-.071-7.175a1.089,1.089,0,0,0,1.045-.7l3.595.8a1.144,1.144,0,0,0,1.158,1.274,1.106,1.106,0,0,0,1.13-.916l1.459.029a1.087,1.087,0,0,0,1.042.652,1.219,1.219,0,0,0,.892-2l.75-1.969c.025,0,.046.007.072.007a1.205,1.205,0,0,0,0-2.409,1.159,1.159,0,0,0-.625.173l-3.747-3.884a1.353,1.353,0,0,0,.132-.885l12.353-3.816h.364v-.179A.238.238,0,0,0,155.313,267.145Zm-15.8,2.756a.888.888,0,1,0-1.581.807l-.648.815a1.149,1.149,0,0,0-.694-.213,1.194,1.194,0,0,0-.553.13l-2.019-3.292a1.307,1.307,0,0,0,.281-1.1l20.505-5.173v5.136Zm-2.263,4.438-1.288,4.44a1.317,1.317,0,0,0-.307-.04v-4.392l.549-.692a1.238,1.238,0,0,0,.386.064,1.338,1.338,0,0,0,.263-.026Zm-13.534,17.846c-.025,0-.046.006-.069.007l-4.2-15.3a.874.874,0,0,0,.58-1.14l6.478-2.342a.887.887,0,0,0,.777.465.9.9,0,0,0,.263-.044l1.918,4.05a1.223,1.223,0,0,0,.741,2.157,1.305,1.305,0,0,0,.268-.027l4.223,8.916a1.363,1.363,0,0,0-.083.983l-9.869,2.893A1.088,1.088,0,0,0,123.716,292.185Zm-11.78-14.037a.9.9,0,0,0-.17-.237l.04-2.152a.888.888,0,0,0,.666-.858c0-.028-.006-.054-.009-.082l3.885-1.5a.89.89,0,0,0,.824.553.745.745,0,0,0,.074-.008l1.2,1.682a.889.889,0,0,0-.15.494.855.855,0,0,0,.013.132Zm-1.6,5-3.224-.492a.872.872,0,0,0-.372-.956l.394-4.617a.886.886,0,0,0,.223-.067l2.9,1.416a.946.946,0,0,0-.011.111.888.888,0,0,0,.6.839l-.2,3.4A.891.891,0,0,0,110.34,283.152Zm-6.51-8.808a.883.883,0,0,0-.524-1.326l.611-6.191c.016,0,.032.005.049.005a.9.9,0,0,0,.272-.047l3.028,3.4a.868.868,0,0,0-.086.194.888.888,0,0,0,.47,1.054l-.726,3.9a.886.886,0,0,0-.722.481Zm-16.289,11.7a.89.89,0,0,0-.333-.066.873.873,0,0,0-.4.1l-2.189-2.546a.886.886,0,0,0,.009-.97l11.081-12.4a.871.871,0,0,0,1.093-.2l2.024,1.658a.877.877,0,0,0,.175.473ZM93.236,263.3l.514-.932a.863.863,0,0,0,.811-.023l.776.426a.865.865,0,0,0-.043.259.887.887,0,0,0,.479.785l-3.581,4.29Zm-8.488-6.794,0-.013,4.456-.04a.886.886,0,0,0,1.64.3l.29.1,3.444,2.772,8.3,5.976-2.279-.244a.886.886,0,0,0-1.439-.691l-2.116-1.433a.886.886,0,0,0-1.452-.872l-.683-.376a.88.88,0,0,0,.111-.421.89.89,0,0,0-1.7-.361Zm1.133-5.734,4.734-.173a1.158,1.158,0,0,0,2.172.069l1.605.258.015.029-3.75,4.676a.879.879,0,0,0-.575-.216.89.89,0,0,0-.824.555l-4.541.041a.9.9,0,0,0-.081-.172l.63-4.446A.887.887,0,0,0,85.881,250.777Zm11.337-1.122a.891.891,0,0,0,.823-1.231l.982-1.73a1.226,1.226,0,0,0,.388.065,1.1,1.1,0,0,0,1.12-.882l2.724.436a.267.267,0,0,0,.038,0c.008,0,.014-.007.022-.007v.007l3.584-.344.66.528a1.265,1.265,0,0,0-.186.485l-1.494.406a.888.888,0,0,0-1.634.445l-1.024.278a.891.891,0,0,0-1.711.349.858.858,0,0,0,.012.113l-4.766,1.3.361-.226A.887.887,0,0,0,97.218,249.655Zm4.319-6.121h3.639a1.332,1.332,0,0,0,.141.64l-2.089,1.647-2.666-.426a1.275,1.275,0,0,0-.187-.539Zm7.286-2.725a1.172,1.172,0,0,0,.58-.146l1.233,1.212a1.335,1.335,0,0,0-.151.6l-3.13.487a1.162,1.162,0,0,0-.119-.186l1.427-1.988A1.238,1.238,0,0,0,108.824,240.809Zm5.037,4.349a1.372,1.372,0,0,0-.067.655l-4.279.734a1.091,1.091,0,0,0-.993-.549,1.162,1.162,0,0,0-.611.164l-.538-.43,3.369-2.457a1.1,1.1,0,0,0,.907.425,1.153,1.153,0,0,0,.628-.175Zm11.424-21.3,1.056,16.527a1.2,1.2,0,0,0-1.007,1.765l-5.889,5.373a1.134,1.134,0,0,0-.739-.25,1.1,1.1,0,0,0-.882.39l-1.8-1.592a1.3,1.3,0,0,0-.34-1.4l9.4-20.836A1.36,1.36,0,0,0,125.285,223.859Zm3.016,17.869a.887.887,0,0,0,1.6.379l3.46,3.839a1.343,1.343,0,0,0,.058,1.329l-.3.536a1.251,1.251,0,0,0-1.1-.013l-4.543-5.83a1.339,1.339,0,0,0,.046-.24Zm-8.566,33.617a.873.873,0,0,0-.919-.108l-1.105-1.548a.852.852,0,0,0,.338-.844l4.18-1.4a.884.884,0,0,0,1.383.361l2.805.973a.872.872,0,0,0-.02.155Zm-7.444-.976c-.006-.009-.013-.016-.02-.024l4.036-5.675a1.017,1.017,0,0,0,.464.026l.136,3.443a.888.888,0,0,0-.61.687Zm-1.148,3.288a.886.886,0,0,0-.692.336l-2.7-1.319a.88.88,0,0,0-.354-1.252l.728-3.906a.893.893,0,0,0,.4-.144l2.345,3a.883.883,0,0,0,.459,1.374l-.035,1.922A.882.882,0,0,0,111.143,277.657Zm-7.177-12.606a.888.888,0,0,0-.645.279l-8.448-6.081-2.4-1.928,18.452,6.333a1.334,1.334,0,0,0,.137,1.287l-2.788,4.832a.89.89,0,0,0-.668.072l-2.968-3.33a.887.887,0,0,0-.676-1.464Zm-13.025-8.965c0-.008,0-.016-.007-.024l3.81-4.751a.873.873,0,0,0,.97-.046L115.029,257a1.361,1.361,0,0,0,.083.572l-3.164,5.408a1.116,1.116,0,0,0-.728.27l-19.848-6.812Zm11.461-6.733a.888.888,0,0,0,.877-.756l1.079-.293a.888.888,0,0,0,1.666-.43c0-.007,0-.015,0-.022l1.366-.371a1.105,1.105,0,0,0,1.132.925,1.161,1.161,0,0,0,1.148-1.4l4.278-.734,0,0-2.706,2.029a1.171,1.171,0,0,0-.6-.16,1.127,1.127,0,0,0-1.157,1.127l-11.684.813,3.918-1.065A.884.884,0,0,0,102.4,249.353Zm35.26,7.839-5.723,5.247a1.14,1.14,0,0,0-.728-.24,1.3,1.3,0,0,0-.328.045L129.6,260.1a1.334,1.334,0,0,0,.133-1.467l3.788-3.726a1.153,1.153,0,0,0,.655.19,1.1,1.1,0,0,0,.888-.4l2.547,1.56A1.365,1.365,0,0,0,137.663,257.192Zm-14.608,13.036a.89.89,0,0,0-.874.729l-4.337,1.449a.884.884,0,0,0-.082-.083l4.226-6.06a1.2,1.2,0,0,0,.551.128,1.21,1.21,0,0,0,1-1.844l4.51-4.273a1.148,1.148,0,0,0,.672.2,1.221,1.221,0,0,0,.479-.094l1.253,2.087A1.3,1.3,0,0,0,130.19,264l-7.117,6.228Zm-11.176,3.837a.885.885,0,0,0-.3-.055.894.894,0,0,0-.338.067L108.84,271a.932.932,0,0,0,.048-.116.888.888,0,0,0-.2-.854l2.752-4.772a1.2,1.2,0,0,0,.543.124,1.122,1.122,0,0,0,.76-.271l2.788,1.952a1.3,1.3,0,0,0,.341,1.386Zm11.34-9.879a1.145,1.145,0,0,0-.631-.2l.123-4a1.27,1.27,0,0,0,.443-1.476l2.691-2.761,2.023,2.674a1.329,1.329,0,0,0-.148,1.481Zm6.188-5.915a1.15,1.15,0,0,0-.683-.206,1.227,1.227,0,0,0-.46.088l-2.081-2.748.417-.427,2.744-2.47a1.127,1.127,0,0,0,.759.268,1.11,1.11,0,0,0,.821-.328l2.128,1.112a1.349,1.349,0,0,0,.132,1Zm1.775-6.232a1.192,1.192,0,0,0-1.079-1.672,1.23,1.23,0,0,0-.428.077l-.95-3.127c.007-.007.015-.013.021-.02l4.337,5.736Zm-3.884-4.575a1.164,1.164,0,0,0,.619.169,1.241,1.241,0,0,0,.381-.062l.957,3.149a1.322,1.322,0,0,0-.2,1.4l-2.792,2.513-.378.388-2.87-2.561a1.342,1.342,0,0,0,.1-1.262Zm-5.912,5.275a1.154,1.154,0,0,0,.682.206,1.171,1.171,0,0,0,.6-.156l2.874,2.559.012.015-2.66,2.729a1.11,1.11,0,0,0-.823-.33,1.091,1.091,0,0,0-.944.479l-3.793-.94a1.353,1.353,0,0,0-.131-.829Zm-5.972,5.27a1.12,1.12,0,0,0,.771.281,1.092,1.092,0,0,0,.982-.532l3.769.934a1.242,1.242,0,0,0,.5,1.3l-4.3,6.412a1.226,1.226,0,0,0-.514-.106,1.108,1.108,0,0,0-.842.348l-2.752-1.927a1.243,1.243,0,0,0-.573-1.658Zm2.1,8.7,4.392-6.551a1.224,1.224,0,0,0,.16.016,1.246,1.246,0,0,0,.155-.016l-.12,3.905a1.253,1.253,0,0,0-.484,1.887l-4.235,6.073-.137-3.483A1.283,1.283,0,0,0,117.516,266.706Zm17.762-12.44a1.18,1.18,0,0,0-1.107-1.58c-.031,0-.058.007-.088.008l-.754-2.412,4,5.24Zm-2.721-4.179a1.3,1.3,0,0,0,.2-.02l.86,2.75c-.022.012-.043.025-.064.038l-4.539-6a1.194,1.194,0,0,0-.919-1.61l-.846-2.784,4.4,5.647A1.217,1.217,0,0,0,132.556,250.087Zm-6.93-7.551a1.129,1.129,0,0,0,.745.256,1.227,1.227,0,0,0,.449-.084l.777,2.558a1.237,1.237,0,0,0-.644,1.86l-4.125,3.679a1.124,1.124,0,0,0-.76-.271,1.112,1.112,0,0,0-.805.314l-1.666-1.568a1.332,1.332,0,0,0,.144-1.374Zm-8.081,5.972-5.772.577a1.248,1.248,0,0,0-.177-.439l2.685-2.013a1.157,1.157,0,0,0,.661.193,1.109,1.109,0,0,0,.831-.338l1.826,1.618A1.375,1.375,0,0,0,117.546,248.508Zm-8.006,1.254a1.1,1.1,0,0,0,1.1.8,1.115,1.115,0,0,0,1.146-.99l5.858-.586a1.09,1.09,0,0,0,1.064.7,1.227,1.227,0,0,0,.506-.1L121,251.258a1.361,1.361,0,0,0,.07,1.12l-4.173,3.723a1.147,1.147,0,0,0-.707-.221,1.089,1.089,0,0,0-1.04.649l-19.121-5.674a.836.836,0,0,0,.044-.165Zm18.13,22.425a.879.879,0,0,0-1.017.169L123.9,271.4a.868.868,0,0,0-.3-.984l6.9-6.037a1.143,1.143,0,0,0,.718.231,1.255,1.255,0,0,0,.373-.059l.864,1.776a1.292,1.292,0,0,0-.366,1.448Zm5.492-6.087a1.345,1.345,0,0,0-.274.027L132,264.308a1.311,1.311,0,0,0,.235-1.491l5.711-5.234a1.125,1.125,0,0,0,.759.269,1.092,1.092,0,0,0,.992-.547l14.463,4.232L134.118,266.6A1.091,1.091,0,0,0,133.162,266.1Zm5.543-12.318-.234,1.686a1.081,1.081,0,0,0-.441.181l-4.568-5.985a1.326,1.326,0,0,0,.024-1.529l.294-.52a1.175,1.175,0,0,0,.593.153,1.338,1.338,0,0,0,.216-.021l3.65,4.076A1.253,1.253,0,0,0,138.7,253.781Zm-31.818-8.293-2.8.268,1.534-1.209a1.141,1.141,0,0,0,.715.228,1.153,1.153,0,0,0,1.153-1.343l2.819-.439ZM98.954,271.1,97.012,269.5a.938.938,0,0,0,.012-.125.888.888,0,0,0-.6-.838v-4.653a.9.9,0,0,0,.389-.224l2.066,1.4a.879.879,0,0,0,.544,1.145l-.256,4.647A.9.9,0,0,0,98.954,271.1Zm-7.566-1.156a.888.888,0,0,0,1.024-1.343l3.531-4.23v4.143a.884.884,0,0,0-.577,1.314L85.147,281.258C89.269,273.853,90.811,271.033,91.389,269.94Zm8.325.725c-.018,0-.035,0-.053.005l.244-4.431a.887.887,0,0,0,.566-.4l2.622.28a.887.887,0,0,0,.357.549l-.628,6.36a.894.894,0,0,0-.38.225l-1.9-1.355a.891.891,0,0,0-.823-1.231Zm35.323,17.858-4.125-8.707a1.226,1.226,0,0,0-.709-2.187,1.3,1.3,0,0,0-.309.039l-1.943-4.1a.878.878,0,0,0,.08-1.06l4.318-4.318a1.111,1.111,0,0,0,.813.32,1.228,1.228,0,0,0,.459-.088l2.047,3.337a1.311,1.311,0,0,0,.119,1.649l-.561.705a.245.245,0,0,0-.052.15v4.569a1.243,1.243,0,0,0,.012,2.227l.072,7.348A1.048,1.048,0,0,0,135.037,288.524Zm19.767-27.3-14.949-4.375a1.173,1.173,0,0,0-.9-1.382l.225-1.622a1.1,1.1,0,0,0,.79-.359L154.8,256Zm-14.59-8.185a1.306,1.306,0,0,0-.274-1.26l.254-1.062c.032,0,.06.009.092.009a1.129,1.129,0,0,0,.746-.257l11.844,4.721Zm.415-4.673a1.278,1.278,0,0,0-.342-.049,1.1,1.1,0,0,0-.891.4l-3.307-3.443a1.328,1.328,0,0,0,.3.035,1.1,1.1,0,0,0,1.116-.863h4.29a1.131,1.131,0,0,0,.458.671Zm-10.5-23.753v14.13a.886.886,0,0,0,.718,1.616l1.413.534,3.053,2.738a1.221,1.221,0,0,0,.7,1.624l-.321.308,3.477,3.62a1.234,1.234,0,0,0,.558,1.41l-.22.917a1.255,1.255,0,0,0-.4-.068,1.225,1.225,0,0,0-.482.095l-3.566-3.982a1.224,1.224,0,0,0-.692-2.2,1.146,1.146,0,0,0-.7.217l-3.606-4a.89.89,0,0,0-1.712-.327h-.868a1.1,1.1,0,0,0-.658-.776L125.764,223.8a1.122,1.122,0,0,0,.745-.915l2.744.422A1.163,1.163,0,0,0,130.131,224.612Zm-10.55-2.124a1.092,1.092,0,0,0,.973-.52l3.657.561a1.24,1.24,0,0,0,.438,1.109l-9.391,20.819a1.283,1.283,0,0,0-.316-.041,1.111,1.111,0,0,0-.814.321l-1.508-1.558a1.292,1.292,0,0,0-.289-1.683L119.4,222.47A1.349,1.349,0,0,0,119.581,222.488Zm-7.7,18.826a1.337,1.337,0,0,0-.237-.023,1.148,1.148,0,0,0-.7.217l-1.188-1.168a1.2,1.2,0,1,0-1.574.29l-1.327,1.849a1.209,1.209,0,0,0-.524-.112,1.09,1.09,0,0,0-1.056.686h-3.485l.777-1.8a1.106,1.106,0,0,0,.866-.913l3.21-1.472a.876.876,0,0,0,.327.064.888.888,0,0,0,.84-.606l2.191-1.033a.888.888,0,0,0,1.316-1.189l7.114-12.429Zm-12.831.509a.247.247,0,0,0,.13-.005l2.389-.779a1.05,1.05,0,0,0,.3.164l-.658,1.969-1.186,1.347a1.168,1.168,0,0,0-.618-.168,1.091,1.091,0,0,0-1.064.7l-7.533-3.86c0-.036.008-.073.009-.109l2.227-.278a1.16,1.16,0,0,0,2.115.114Zm-9.838.349a1.232,1.232,0,0,0,.447.083,1.091,1.091,0,0,0,1.015-.592l7.571,3.88a1.249,1.249,0,0,0,.36.906l-.895,1.576a.888.888,0,0,0-1.356.519l-7.91-3.734a.881.881,0,0,0-.291-1.11Zm-1,3.063,8.172,3.858a.89.89,0,0,0,.207.31l-.8.5a.885.885,0,0,0-1.489.531l-1.437-.231a1.139,1.139,0,0,0-1.163-1.211,1.24,1.24,0,0,0-.381.062Zm5.04,16.493a.873.873,0,0,0,.122.317l-.45.815L86.645,258.1Zm-.811,2.932-.772,3.552a.885.885,0,0,0-.759,1.343c-.673.809-2.133,2.721-5.5,7.177ZM83.881,279.8a.9.9,0,0,0-.023-.2c2.008-2.662,4.5-5.958,6.124-8.074-1.607,2.928-4.329,7.828-5.9,10.64a.891.891,0,0,0-.172-.023l-.395-1.635A.886.886,0,0,0,83.881,279.8Zm9.588,3.538a.891.891,0,0,0-.891.891c0,.026.005.05.008.076l-4.575,2.182a.872.872,0,0,0-.089-.148l11.466-13.956a.9.9,0,0,0,.327.063.883.883,0,0,0,.523-.173l1.972,1.4a.876.876,0,0,0,.6,1.046l-.179,4.729a.913.913,0,0,0-.13-.013.88.88,0,0,0-.845,1.16l-7.519,3.05A.884.884,0,0,0,93.469,283.338Zm9.638-3.66.187-4.942a.842.842,0,0,0,.16-.057l2.657,1.64a.887.887,0,0,0,.546.718l-.385,4.522-.019,0a.882.882,0,0,0-.557.2l-2.311-1.339a.833.833,0,0,0,.008-.088A.884.884,0,0,0,103.107,279.678Zm9.837,3.723-.936-.075a.889.889,0,0,0-.864-.685h0l.193-3.224a.888.888,0,0,0,.691-.792l6.486-2.007a.885.885,0,0,0,.435.28l4.23,15.409a1.044,1.044,0,0,0-.321.243l-9.767-9.085A.242.242,0,0,0,112.944,283.4Zm13.4,12.125a1.112,1.112,0,0,0-.809-.316,1.224,1.224,0,0,0-.5.1l-.626-.928a1.234,1.234,0,0,0,.464-1.114l9.046-2.652Zm16.274-14.4a1.115,1.115,0,0,0-1.149-1.012,1.089,1.089,0,0,0-1.048.666l-3.607-.808A1.233,1.233,0,0,0,136.4,279l1.2-4.131,6.424,5.738a1.365,1.365,0,0,0-.084.549Zm2.975-1.149a1.221,1.221,0,0,0-.493-.1,1.114,1.114,0,0,0-.808.316l-6.367-5.688-.089-.145,2.7-2.006a1.1,1.1,0,0,0,.9.418,1.15,1.15,0,0,0,.687-.21l3.724,3.859a1.267,1.267,0,0,0,.424,1.773Zm-3.2-9.111a1.09,1.09,0,0,0-.96-.5,1.177,1.177,0,0,0-1.115,1.549l-2.737,2.035-.28-.456a1.3,1.3,0,0,0,.3-1.6l.67-.844a.88.88,0,0,0,1.316-.675l11.338-2.144Z" transform="translate(-82.099 -218.082)" fill="url(#linear-gradient)"></path><g id="Group_101" data-name="Group 101" transform="translate(92.356)"><g id="Group_100" data-name="Group 100" clip-path="url(#clip-path)"><rect id="Rectangle_53" data-name="Rectangle 53" width="103.016" height="171.283" transform="matrix(-0.031, -1, 1, -0.031, -3.004, 76.228)" fill="url(#linear-gradient-2)"></rect></g></g><path id="Union_1" data-name="Union 1" d="M126.387,55.73a21.225,21.225,0,0,1-9.016-5.147,20.026,20.026,0,0,1-5.009-8.706,44.039,44.039,0,0,1-1.542-12.359,49.14,49.14,0,0,1,1.521-12.96,22.428,22.428,0,0,1,4.817-9.209,20.18,20.18,0,0,1,8.5-5.511A38.009,38.009,0,0,1,138.27,0q2.611,0,5.16.231t4.837.62q2.293.388,4.282.89t3.533,1.045l-2.826,7.775a65.073,65.073,0,0,0-6.488-1.76,33.8,33.8,0,0,0-7.257-.753,21.387,21.387,0,0,0-7.751,1.238,11.736,11.736,0,0,0-5.118,3.754,15.878,15.878,0,0,0-2.8,6.344,41.484,41.484,0,0,0-.856,8.974,41.34,41.34,0,0,0,.943,9.459,16.048,16.048,0,0,0,3.039,6.54,12.259,12.259,0,0,0,5.5,3.789,24.7,24.7,0,0,0,8.287,1.219,45.664,45.664,0,0,0,7.473-.618,55.522,55.522,0,0,0,6.956-1.586l2.4,7.775a61.46,61.46,0,0,1-8.371,1.8,63.021,63.021,0,0,1-9.271.678A47.224,47.224,0,0,1,126.387,55.73Zm-54.275.753V8.781H53.957V.851h48.086v7.93H84.058v47.7Zm-42.694,0V.851H41.366V56.484ZM0,56.484V.851H11.948V56.484Z" transform="translate(93.748 1.393)" fill="#3b3e49"></path><path id="Union_2" data-name="Union 2" d="M113.612,8.914a6.176,6.176,0,0,1-.925-3.693,6.789,6.789,0,0,1,.925-3.906A3.132,3.132,0,0,1,116.352,0a5.121,5.121,0,0,1,1.237.136,7.092,7.092,0,0,1,1.058.356l-.307,1.015c-.164-.068-.324-.131-.482-.185a4.556,4.556,0,0,0-.476-.137,4.167,4.167,0,0,0-.495-.082,4.954,4.954,0,0,0-.536-.027,2.246,2.246,0,0,0-1.132.271,2.144,2.144,0,0,0-.783.788,3.918,3.918,0,0,0-.458,1.26,8.754,8.754,0,0,0-.146,1.689,8.965,8.965,0,0,0,.146,1.719,3.836,3.836,0,0,0,.458,1.259,2.1,2.1,0,0,0,.783.771,2.327,2.327,0,0,0,1.132.26,5.5,5.5,0,0,0,1.15-.117,8.518,8.518,0,0,0,1.085-.307l.28,1.055a8,8,0,0,1-1.167.321,6.717,6.717,0,0,1-1.349.124A3.187,3.187,0,0,1,113.612,8.914Zm-43.7-.052a6.227,6.227,0,0,1-.977-3.785,6.208,6.208,0,0,1,.98-3.776,3.59,3.59,0,0,1,5.539.01,6.277,6.277,0,0,1,.968,3.766A6.3,6.3,0,0,1,75.45,8.86a3.59,3.59,0,0,1-5.541,0Zm.808-6.728a5.69,5.69,0,0,0-.64,2.943,8.194,8.194,0,0,0,.149,1.654,4.158,4.158,0,0,0,.463,1.262,2.193,2.193,0,0,0,.813.816,2.338,2.338,0,0,0,1.167.284,2.146,2.146,0,0,0,1.953-1.051,5.659,5.659,0,0,0,.65-2.964,5.623,5.623,0,0,0-.65-2.954,2.337,2.337,0,0,0-3.906.011ZM58.333,9.587l.356-1.015c.161.074.332.142.512.206a5.269,5.269,0,0,0,.552.164,5.688,5.688,0,0,0,.566.11,3.9,3.9,0,0,0,.558.041,2.724,2.724,0,0,0,.849-.123,1.854,1.854,0,0,0,.653-.359,1.606,1.606,0,0,0,.422-.582,2.012,2.012,0,0,0,.147-.792,1.659,1.659,0,0,0-.14-.73,1.28,1.28,0,0,0-.4-.476,2.506,2.506,0,0,0-.65-.325c-.258-.09-.549-.183-.878-.278a8.8,8.8,0,0,1-1-.367,2.735,2.735,0,0,1-.8-.524,2.264,2.264,0,0,1-.525-.8,3.274,3.274,0,0,1-.187-1.189,2.635,2.635,0,0,1,.2-1.055,2.268,2.268,0,0,1,.568-.806,2.543,2.543,0,0,1,.884-.51A3.439,3.439,0,0,1,61.157,0a4.467,4.467,0,0,1,.615.043A6.293,6.293,0,0,1,62.4.164,5.352,5.352,0,0,1,63,.349a5.584,5.584,0,0,1,.558.239L63.2,1.6l-.436-.194a4.573,4.573,0,0,0-.473-.17,3.791,3.791,0,0,0-1.137-.165,2.337,2.337,0,0,0-.623.082,1.517,1.517,0,0,0-.525.257,1.228,1.228,0,0,0-.364.456,1.523,1.523,0,0,0-.139.679,1.659,1.659,0,0,0,.141.729,1.254,1.254,0,0,0,.4.476,2.476,2.476,0,0,0,.65.326c.256.089.55.181.876.278a8.618,8.618,0,0,1,1.006.366,2.672,2.672,0,0,1,.794.525,2.217,2.217,0,0,1,.525.8,3.2,3.2,0,0,1,.191,1.185,3.22,3.22,0,0,1-.239,1.3,2.454,2.454,0,0,1-.672.916,2.8,2.8,0,0,1-1.021.541,4.412,4.412,0,0,1-1.283.178A5.91,5.91,0,0,1,58.333,9.587Zm-7.095,0,.356-1.015c.161.074.332.142.512.206a5.309,5.309,0,0,0,.552.164,5.689,5.689,0,0,0,.566.11,3.907,3.907,0,0,0,.557.041,2.72,2.72,0,0,0,.849-.123,1.856,1.856,0,0,0,.653-.359,1.618,1.618,0,0,0,.422-.582,2.013,2.013,0,0,0,.147-.792,1.668,1.668,0,0,0-.139-.73,1.283,1.283,0,0,0-.4-.476,2.492,2.492,0,0,0-.65-.325c-.258-.09-.55-.183-.879-.278a8.783,8.783,0,0,1-1-.367,2.731,2.731,0,0,1-.8-.524,2.257,2.257,0,0,1-.525-.8,3.261,3.261,0,0,1-.188-1.189,2.635,2.635,0,0,1,.2-1.055,2.254,2.254,0,0,1,.568-.806,2.538,2.538,0,0,1,.884-.51A3.441,3.441,0,0,1,54.062,0a4.467,4.467,0,0,1,.615.043A6.262,6.262,0,0,1,55.3.164a5.421,5.421,0,0,1,.607.185,5.519,5.519,0,0,1,.557.239L56.108,1.6l-.436-.194a4.571,4.571,0,0,0-.473-.17,3.791,3.791,0,0,0-1.137-.165,2.336,2.336,0,0,0-.623.082,1.513,1.513,0,0,0-.525.257,1.228,1.228,0,0,0-.364.456,1.523,1.523,0,0,0-.139.679,1.659,1.659,0,0,0,.141.729,1.259,1.259,0,0,0,.4.476,2.471,2.471,0,0,0,.65.326c.255.089.549.181.876.278a8.643,8.643,0,0,1,1.006.366,2.681,2.681,0,0,1,.8.525,2.216,2.216,0,0,1,.525.8A3.2,3.2,0,0,1,57,7.236a3.211,3.211,0,0,1-.24,1.3,2.447,2.447,0,0,1-.671.916,2.806,2.806,0,0,1-1.021.541,4.414,4.414,0,0,1-1.284.178A5.91,5.91,0,0,1,51.238,9.587ZM30.458,8.862a6.23,6.23,0,0,1-.976-3.785A6.208,6.208,0,0,1,30.46,1.3,3.59,3.59,0,0,1,36,1.311a6.273,6.273,0,0,1,.969,3.766A6.3,6.3,0,0,1,36,8.86a3.59,3.59,0,0,1-5.541,0Zm.808-6.728a5.69,5.69,0,0,0-.639,2.943,8.233,8.233,0,0,0,.149,1.654,4.158,4.158,0,0,0,.462,1.262,2.2,2.2,0,0,0,.814.816,2.335,2.335,0,0,0,1.167.284,2.146,2.146,0,0,0,1.953-1.051,5.659,5.659,0,0,0,.65-2.964,5.623,5.623,0,0,0-.65-2.954,2.338,2.338,0,0,0-3.907.011ZM83.78,10.072,79.242,1.836V10H78.127V.149h1.306L83.97,8.386V.149h1.116v9.922ZM157.051,10V5.563L153.967.149h1.268L157.6,4.509,159.976.149h1.268l-3.085,5.413V10Zm-5.12,0-.889-8.292h-.06L148.626,10H147.3l-2.356-8.292h-.06L143.994,10h-1.085L143.934.158h1.657l2.372,8.531L150.335.158h1.657L153.017,10Zm-15.215,0V.149h4.733V1.2h-3.618V3.925h2.563V4.981h-2.563V8.948h3.754V10Zm-8.161,0V.149h1.8a10.013,10.013,0,0,1,1.354.085,4.8,4.8,0,0,1,1.149.3,3.15,3.15,0,0,1,.917.565,3.121,3.121,0,0,1,.677.9,4.747,4.747,0,0,1,.422,1.3,9.582,9.582,0,0,1,.145,1.775,9.6,9.6,0,0,1-.145,1.775,4.782,4.782,0,0,1-.422,1.3,3.119,3.119,0,0,1-.677.9,3.151,3.151,0,0,1-.917.566,4.746,4.746,0,0,1-1.149.3,9.919,9.919,0,0,1-1.354.086Zm1.115-1.056h.871a4.964,4.964,0,0,0,1.54-.208,2.268,2.268,0,0,0,1.037-.683,2.934,2.934,0,0,0,.577-1.2,7.414,7.414,0,0,0,.182-1.778,7.424,7.424,0,0,0-.182-1.779,2.941,2.941,0,0,0-.577-1.2,2.257,2.257,0,0,0-1.037-.682,4.962,4.962,0,0,0-1.54-.209h-.871ZM126.221,10,125.1,6.652h-3.377L120.6,10h-1.131L122.851.149h1.123L127.355,10ZM122.075,5.6h2.674l-1.341-4.009ZM110.753,10l-1.121-3.351h-3.376L105.135,10H104L107.382.149h1.124L111.887,10ZM106.607,5.6h2.674L107.94,1.588ZM95.418,10V.149h1.115v8.8h3.493V10ZM93.01,10,91.89,6.652H88.514L87.393,10H86.261L89.64.149h1.124L94.145,10ZM88.865,5.6h2.674L90.2,1.588ZM65.956,10V.149h1.115V10ZM44.928,10V.149h4.733V1.2H46.043V3.925h2.562V4.981H46.043V8.948H49.8V10ZM38.7,10V.149h4.733V1.2H39.813V3.925h2.562V4.981H39.813V10ZM27.2,10l-1.341-2.4q-.364-.659-.626-1.063a3.836,3.836,0,0,0-.5-.638,1.206,1.206,0,0,0-.473-.314,1.752,1.752,0,0,0-.563-.083h-.226V10h-1.1V.149h2.671A3.647,3.647,0,0,1,26.1.3a2.424,2.424,0,0,1,.886.48,2.326,2.326,0,0,1,.615.85,3.054,3.054,0,0,1,.22,1.212,3.058,3.058,0,0,1-.22,1.213A2.3,2.3,0,0,1,26.312,5.31a3.412,3.412,0,0,1-.794.2l-.005.013a2.779,2.779,0,0,1,.381.367,6.229,6.229,0,0,1,.433.558c.149.215.3.447.463.7s.318.511.481.785L28.5,10Zm-3.732-5.5h1.566a2.288,2.288,0,0,0,.68-.1,1.41,1.41,0,0,0,.534-.3,1.363,1.363,0,0,0,.345-.517,2.043,2.043,0,0,0,.125-.754,2.038,2.038,0,0,0-.125-.754,1.375,1.375,0,0,0-.345-.517,1.4,1.4,0,0,0-.534-.3,2.27,2.27,0,0,0-.68-.1H23.466ZM15.131,10V.149H17.8A3.942,3.942,0,0,1,18.9.3a2.275,2.275,0,0,1,.886.479,2.277,2.277,0,0,1,.593.868,3.476,3.476,0,0,1,.218,1.3,3.367,3.367,0,0,1-.251,1.4,2.173,2.173,0,0,1-.672.855,2.449,2.449,0,0,1-.985.433,5.78,5.78,0,0,1-1.183.116c-.226,0-.446-.008-.664-.027s-.416-.038-.607-.062V10Zm1.1-5.372q.286.04.6.065c.207.016.416.024.626.024a4.8,4.8,0,0,0,.827-.065,1.516,1.516,0,0,0,.645-.257,1.273,1.273,0,0,0,.416-.541,2.383,2.383,0,0,0,.147-.912,2.464,2.464,0,0,0-.125-.853,1.37,1.37,0,0,0-.345-.546,1.238,1.238,0,0,0-.536-.287,2.648,2.648,0,0,0-.683-.083H16.235ZM5.914,10V1.554H3.4V.149H10.06v1.4H7.568V10ZM0,10V.149H1.654V10Z" transform="translate(90.933 69.991)" fill="url(#linear-gradient-3)"></path></g></svg>